<svg xmlns="http://www.w3.org/2000/svg" xmlns:xlink="http://www.w3.org/1999/xlink" style="margin:auto;background:#fff;display:block;" width="207px" height="207px" viewBox="0 0 100 100" preserveAspectRatio="xMidYMid">
<defs><mask id="ldio-rfjpvzr0ec8-mask"><circle cx="50" cy="50" r="45" fill="#fff"></circle></mask></defs>
<circle cx="50" cy="50" r="45" fill="#f91a10"></circle>
<path d="M32.32233047033631 67.67766952966369 L39.39339828220179 60.60660171779821 A15 15 0 0 1 60.60660171779821 39.39339828220179 L67.67766952966369 32.32233047033631 L167.6776695296637 132.3223304703363 L132.3223304703363 167.6776695296637 Z" fill="#b50c05" mask="url(#ldio-rfjpvzr0ec8-mask)"></path>
<g transform="translate(50 50)">
<g>
<animateTransform attributeName="transform" type="rotate" values="0;360" keyTimes="0;1" dur="1.5873015873015872s" repeatCount="indefinite"></animateTransform><path d="M37.59986702104145 -5.5 L47.59986702104145 -5.5 L47.59986702104145 5.5 L37.59986702104145 5.5 A38 38 0 0 1 35.31244001913861 14.036793789706307 L35.31244001913861 14.036793789706307 L43.972694056983 19.03679378970631 L38.472694056983 28.563073231335135 L29.812440019138617 23.563073231335135 A38 38 0 0 1 23.56307323133514 29.812440019138613 L23.56307323133514 29.812440019138613 L28.56307323133514 38.472694056983 L19.036793789706316 43.972694056983 L14.036793789706314 35.31244001913861 A38 38 0 0 1 5.500000000000001 37.59986702104145 L5.500000000000001 37.59986702104145 L5.500000000000002 47.59986702104145 L-5.499999999999996 47.59986702104145 L-5.4999999999999964 37.59986702104145 A38 38 0 0 1 -14.036793789706303 35.31244001913861 L-14.036793789706303 35.31244001913861 L-19.0367937897063 43.972694056983 L-28.563073231335135 38.472694056983 L-23.563073231335135 29.812440019138617 A38 38 0 0 1 -29.812440019138602 23.563073231335153 L-29.812440019138602 23.563073231335153 L-38.47269405698299 28.563073231335157 L-43.972694056983 19.03679378970632 L-35.31244001913861 14.036793789706316 A38 38 0 0 1 -37.59986702104145 5.5000000000000115 L-37.59986702104145 5.5000000000000115 L-47.59986702104145 5.500000000000012 L-47.59986702104145 -5.500000000000002 L-37.59986702104145 -5.500000000000003 A38 38 0 0 1 -35.31244001913862 -14.036793789706293 L-35.31244001913862 -14.036793789706293 L-43.97269405698301 -19.03679378970629 L-38.472694056983 -28.563073231335128 L-29.812440019138617 -23.56307323133513 A38 38 0 0 1 -23.56307323133514 -29.812440019138613 L-23.56307323133514 -29.812440019138613 L-28.563073231335142 -38.472694056982995 L-19.036793789706337 -43.97269405698299 L-14.036793789706335 -35.312440019138606 A38 38 0 0 1 -5.499999999999997 -37.59986702104145 L-5.499999999999997 -37.59986702104145 L-5.499999999999999 -47.59986702104145 L5.499999999999981 -47.59986702104145 L5.499999999999983 -37.59986702104145 A38 38 0 0 1 14.03679378970629 -35.31244001913863 L14.03679378970629 -35.31244001913863 L19.036793789706284 -43.972694056983016 L28.563073231335096 -38.47269405698303 L23.563073231335103 -29.81244001913864 A38 38 0 0 1 29.812440019138606 -23.563073231335142 L29.812440019138606 -23.563073231335142 L38.47269405698299 -28.563073231335146 L43.97269405698299 -19.03679378970634 L35.312440019138606 -14.036793789706337 A38 38 0 0 1 37.59986702104145 -5.499999999999999 M0 -20A20 20 0 1 0 0 20 A20 20 0 1 0 0 -20" fill="#18252b" transform="scale(0.65)"></path></g></g>
</svg>