<svg xmlns="http://www.w3.org/2000/svg" viewBox="0 0 512 448"><defs><style>.a{fill:#fff;}.b{fill:#e75e00;}</style></defs><polygon class="a" points="258.01 80 161.01 14 43.01 51 20.01 162 55.01 227 255.01 430 488.01 189 482.01 68 414.01 22 305.01 35 258.01 80"/><path class="b" d="M462.3,62.7C407.8,16.3,326.3,24,275.7,76.2L256,96.6,236.3,76.3C195.5,34.1,113.2,8.7,49.7,62.7c-62.8,53.6-66.1,149.8-9.9,207.8L233.3,470.3a31.47,31.47,0,0,0,22.6,9.7,31.07,31.07,0,0,0,22.6-9.7L472,270.5C528.4,212.5,525.1,116.3,462.3,62.7ZM449.2,248.3,256.4,448.1,62.8,248.3C24.4,208.7,16.4,133.2,70.5,87.1c54.8-46.8,119.2-12.9,142.8,11.5L256,142.7l42.7-44.1c23.2-24,88.2-58,142.8-11.5,54,46,46.1,121.5,7.7,161.2Z" transform="translate(0.01 -32)"/></svg>