<?xml version="1.0" encoding="utf-8"?>
<!-- Generator: Adobe Illustrator 19.2.0, SVG Export Plug-In . SVG Version: 6.00 Build 0)  -->
<svg version="1.1" id="Layer_1" xmlns="http://www.w3.org/2000/svg" xmlns:xlink="http://www.w3.org/1999/xlink" x="0px" y="0px"
	 viewBox="0 0 12 15" width="24" height="21" style="enable-background:new 0 0 12 15;" xml:space="preserve">
<g>
	<path d="M4.7,1c0.2-0.7,1-1.2,1.7-0.9C6.8,0.2,7.2,0.5,7.3,1H11c0.6,0,1,0.4,1,1s-0.4,1-1,1H1C0.4,3,0,2.6,0,2s0.4-1,1-1H4.7z M1,4
		h10v10c0,0.6-0.4,1-1,1H2c-0.6,0-1-0.4-1-1V4z M3.3,5.8C3,5.8,2.8,6,2.8,6.3v6.4c0,0.3,0.2,0.5,0.5,0.5s0.5-0.2,0.5-0.5V6.3
		C3.7,6,3.5,5.8,3.3,5.8z M6,5.8C5.7,5.8,5.5,6,5.5,6.3v6.4c0,0.3,0.2,0.5,0.5,0.5c0.3,0,0.5-0.2,0.5-0.5V6.3C6.5,6,6.3,5.8,6,5.8z
		 M8.7,5.8C8.5,5.8,8.3,6,8.3,6.3v6.4c0,0.3,0.2,0.4,0.5,0.4c0.2,0,0.4-0.2,0.4-0.4V6.3C9.2,6,9,5.8,8.7,5.8z"/>
</g>
</svg>
