<?xml version="1.0" encoding="UTF-8"?>
<svg width="18px" height="12px" viewBox="0 0 18 12" version="1.1" xmlns="http://www.w3.org/2000/svg" xmlns:xlink="http://www.w3.org/1999/xlink">
    <!-- Generator: Sketch 53.1 (72631) - https://sketchapp.com -->
    <title>zoomouticon</title>
    <desc>Created with Sketch.</desc>
    <g id="FLYER" stroke="none" stroke-width="1" fill="none" fill-rule="evenodd">
        <g id="04---Flyer---edit-photo" transform="translate(-544.000000, -391.000000)" fill="#657786" fill-rule="nonzero">
            <g id="Group-28" transform="translate(517.000000, 369.000000)">
                <g id="Group-29" transform="translate(27.000000, 17.000000)">
                    <path d="M1.57142857,6 C1.25583729,6 1,6.22385763 1,6.5 L1,15.5 C1,15.7761424 1.25583729,16 1.57142857,16 L16.4285714,16 C16.7441627,16 17,15.7761424 17,15.5 L17,6.5 C17,6.22385763 16.7441627,6 16.4285714,6 L1.57142857,6 Z M1.2,5 L16.8,5 C17.4627417,5 18,5.48841664 18,6.09090909 L18,15.9090909 C18,16.5115834 17.4627417,17 16.8,17 L1.2,17 C0.5372583,17 0,16.5115834 0,15.9090909 L0,6.09090909 C0,5.48841664 0.5372583,5 1.2,5 Z M11.8941715,14.1554034 C11.7844547,14.262536 11.6055137,14.263554 11.4944957,14.157677 C11.3834776,14.0518001 11.3824228,13.8791217 11.4921396,13.7719891 L13.4101015,11.8992019 C13.5202759,11.7916225 13.7001291,11.7911109 13.8109588,11.8980618 L16.5519735,14.5431459 C16.6623429,14.6496526 16.6623429,14.8223339 16.5519735,14.9288405 C16.4416042,15.0353472 16.2626601,15.0353472 16.1522907,14.9288405 L13.6122989,12.4777439 L11.8941715,14.1554034 Z M1.69503259,15.0537534 C1.58466323,15.1602601 1.40571915,15.1602601 1.2953498,15.0537534 C1.18498045,14.9472468 1.18498045,14.7745655 1.2953498,14.6680588 L6.34158562,9.79843219 C6.45195497,9.69192557 6.63089905,9.69192557 6.7412684,9.79843219 L12.4173584,15.2758693 C12.5277278,15.3823759 12.5277278,15.5550572 12.4173584,15.6615639 C12.3069891,15.7680705 12.128045,15.7680705 12.0176756,15.6615639 L6.54142701,10.3769741 L1.69503259,15.0537534 Z M12.4568811,10.6363636 C11.5203661,10.6363636 10.7611707,9.90373868 10.7611707,9 C10.7611707,8.09626132 11.5203661,7.36363636 12.4568811,7.36363636 C13.3933961,7.36363636 14.1525916,8.09626132 14.1525916,9 C14.1525916,9.90373868 13.3933961,10.6363636 12.4568811,10.6363636 Z M12.4568811,10.0909091 C13.0812245,10.0909091 13.5873547,9.60249245 13.5873547,9 C13.5873547,8.39750755 13.0812245,7.90909091 12.4568811,7.90909091 C11.8325378,7.90909091 11.3264075,8.39750755 11.3264075,9 C11.3264075,9.60249245 11.8325378,10.0909091 12.4568811,10.0909091 Z" id="zoomouticon"></path>
                </g>
            </g>
        </g>
    </g>
</svg>