<?xml version="1.0" encoding="UTF-8"?>
<svg width="36px" height="24px" viewBox="0 0 36 24" version="1.1" xmlns="http://www.w3.org/2000/svg" xmlns:xlink="http://www.w3.org/1999/xlink">
    <!-- Generator: Sketch 53.1 (72631) - https://sketchapp.com -->
    <title>zoominicon</title>
    <desc>Created with Sketch.</desc>
    <g id="FLYER" stroke="none" stroke-width="1" fill="none" fill-rule="evenodd">
        <g id="04---Flyer---edit-photo" transform="translate(-746.000000, -386.000000)" fill="#657786" fill-rule="nonzero">
            <g id="Group-28" transform="translate(517.000000, 369.000000)">
                <g id="Group-29" transform="translate(27.000000, 17.000000)">
                    <path d="M204.214286,1 C203.543654,1 203,1.49248678 203,2.1 L203,21.9 C203,22.5075132 203.543654,23 204.214286,23 L235.785714,23 C236.456346,23 237,22.5075132 237,21.9 L237,2.1 C237,1.49248678 236.456346,1 235.785714,1 L204.214286,1 Z M204.4,0 L235.6,0 C236.925483,0 238,0.976833273 238,2.18181818 L238,21.8181818 C238,23.0231667 236.925483,24 235.6,24 L204.4,24 C203.074517,24 202,23.0231667 202,21.8181818 L202,2.18181818 C202,0.976833273 203.074517,0 204.4,0 Z M225.788343,18.3108068 C225.568909,18.5250721 225.211027,18.5271079 224.988991,18.315354 C224.766955,18.1036002 224.764846,17.7582435 224.984279,17.5439782 L228.820203,13.7984039 C229.040552,13.583245 229.400258,13.5822219 229.621918,13.7961236 L235.103947,19.0862919 C235.324686,19.2993051 235.324686,19.6446678 235.103947,19.8576811 C234.883208,20.0706943 234.52532,20.0706943 234.304581,19.8576811 L229.224598,14.9554877 L225.788343,18.3108068 Z M205.390065,20.1075069 C205.169326,20.3205201 204.811438,20.3205201 204.5907,20.1075069 C204.369961,19.8944936 204.369961,19.5491309 204.5907,19.3361177 L214.683171,9.59686439 C214.90391,9.38385114 215.261798,9.38385114 215.482537,9.59686439 L226.834717,20.5517385 C227.055456,20.7647518 227.055456,21.1101145 226.834717,21.3231277 C226.613978,21.536141 226.25609,21.536141 226.035351,21.3231277 L215.082854,10.7539482 L205.390065,20.1075069 Z M226.913762,11.2727273 C225.040732,11.2727273 223.522341,9.80747736 223.522341,8 C223.522341,6.19252264 225.040732,4.72727273 226.913762,4.72727273 C228.786792,4.72727273 230.305183,6.19252264 230.305183,8 C230.305183,9.80747736 228.786792,11.2727273 226.913762,11.2727273 Z M226.913762,10.1818182 C228.162449,10.1818182 229.174709,9.20498491 229.174709,8 C229.174709,6.79501509 228.162449,5.81818182 226.913762,5.81818182 C225.665076,5.81818182 224.652815,6.79501509 224.652815,8 C224.652815,9.20498491 225.665076,10.1818182 226.913762,10.1818182 Z" id="zoominicon"></path>
                </g>
            </g>
        </g>
    </g>
</svg>