<?xml version="1.0" encoding="UTF-8"?>
<svg width="20px" height="18px" viewBox="0 0 20 18" version="1.1" xmlns="http://www.w3.org/2000/svg" xmlns:xlink="http://www.w3.org/1999/xlink">
    <!-- Generator: Sketch 52.3 (67297) - http://www.bohemiancoding.com/sketch -->
    <title>heart</title>
    <desc>Created with Sketch.</desc>
    <g id="MAILER" stroke="none" stroke-width="1" fill="none" fill-rule="evenodd">
        <g id="01---Mailer---templates" transform="translate(-1324.000000, -579.000000)" fill="#e75e00" fill-rule="nonzero">
            <g id="Group-8" transform="translate(520.000000, 302.000000)">
                <g id="Proof-1-Copy-2" transform="translate(570.000000, 0.000000)">
                    <g id="1">
                        <g id="Title" transform="translate(16.000000, 204.000000)">
                            <g id="heart" transform="translate(218.000000, 73.000000)">
                                <path d="M18.0592429,1.23339982 C15.9303167,-0.630895053 12.7466929,-0.321518534 10.7701118,1.77581319 L10.0005734,2.59546007 L9.23103487,1.77983107 C7.63726987,0.0842870302 4.42239587,-0.936253695 1.94190378,1.23339982 C-0.511244306,3.38698182 -0.640151769,7.25217937 1.55518139,9.58254795 L9.11384626,17.6102659 C9.35603604,17.8674101 9.67635156,18 9.99666707,18 C10.3169826,18 10.6372981,17.8714279 10.8794879,17.6102659 L18.4381528,9.58254795 C20.6412985,7.25217937 20.512391,3.38698182 18.0592429,1.23339982 Z M17.5475194,8.69057929 L10.0161985,16.7182973 L2.45362734,8.69057929 C0.953613227,7.09950005 0.641110287,4.06600301 2.75441142,2.21376177 C4.89505657,0.333395396 7.41070524,1.69545566 8.33258891,2.67581761 L10.0005734,4.44770131 L11.6685578,2.67581761 C12.5748163,1.71152716 15.1139027,0.345449027 17.2467353,2.21376177 C19.3561301,4.06198513 19.0475335,7.09548217 17.5475194,8.69057929 Z" id="Shape"></path>
                            </g>
                        </g>
                    </g>
                </g>
            </g>
        </g>
    </g>
</svg>