<?xml version="1.0" encoding="UTF-8"?>
<svg width="8px" height="16px" viewBox="0 0 8 16" version="1.1" xmlns="http://www.w3.org/2000/svg" xmlns:xlink="http://www.w3.org/1999/xlink">
    <!-- Generator: Sketch 52.3 (67297) - http://www.bohemiancoding.com/sketch -->
    <title>left</title>
    <desc>Created with Sketch.</desc>
    <g id="MAILER" stroke="none" stroke-width="1" fill="none" fill-rule="evenodd">
        <g id="02---Mailer---product-screen" transform="translate(-240.000000, -290.000000)" fill="#2A2F34" fill-rule="nonzero">
            <g id="Group-19" transform="translate(0.000000, 53.000000)">
                <g id="top-mailer" transform="translate(240.000000, 235.000000)">
                    <g id="Group-22">
                        <g id="Group-16" transform="translate(0.000000, 2.000000)">
                            <path d="M7.21456916,15.999965 C6.99840888,15.999485 6.79120862,15.9127649 6.63856843,15.7588447 L0.670560851,9.57083684 C-0.223520284,8.63739565 -0.223520284,7.16107378 0.670560851,6.22763259 L6.63856843,0.168104902 C6.98800887,-0.103575443 7.49040951,-0.0390953608 7.76080985,0.311945085 C7.97873013,0.594665444 7.98433014,0.988105943 7.77456987,1.27706631 L1.80656229,7.36875404 C1.50160191,7.68123444 1.50160191,8.18139507 1.80656229,8.49387547 L7.77456987,14.6658833 C8.07937026,14.9622037 8.08753027,15.4505243 7.79264989,15.7567647 C7.78672988,15.7630047 7.78064988,15.7690847 7.77456987,15.7750047 C7.62336968,15.9190049 7.42304942,15.999645 7.21456916,15.999965 Z" id="left"></path>
                        </g>
                    </g>
                </g>
            </g>
        </g>
    </g>
</svg>